<?xml version="1.0" standalone="no"?><!DOCTYPE svg PUBLIC "-//W3C//DTD SVG 1.1//EN" "http://www.w3.org/Graphics/SVG/1.1/DTD/svg11.dtd"><svg t="1483535070976" class="icon" style="" viewBox="0 0 1610 1024" version="1.1" xmlns="http://www.w3.org/2000/svg" p-id="6576" xmlns:xlink="http://www.w3.org/1999/xlink" width="50.3125" height="32"><defs><style type="text/css"></style></defs><path d="M1432.035938 420.752474 1432.035938 243.326732 1305.531002 243.326732 1305.531002 420.752474 1123.363889 420.752474 1123.363889 547.485147 1305.531002 547.485147 1305.531002 729.980199 1432.035938 729.980199 1432.035938 547.485147 1609.142857 547.485147 1609.142857 420.752474 1432.035938 420.752474 1432.035938 420.752474ZM511.07996 410.613862 511.07996 613.386138C511.07996 613.386138 707.435886 613.122536 787.387002 613.122536 744.091941 744.574732 676.771084 816.158415 511.07996 816.158415 343.400204 816.158415 212.528299 679.981624 212.528299 512 212.528299 344.018376 343.400204 207.841585 511.07996 207.841585 599.734638 207.841585 656.990769 239.058376 709.510558 282.568238 751.550683 240.452435 748.0389 234.450376 854.996309 133.261941 764.201179 50.47002 643.525583 0 511.07996 0 228.817067 0 0 229.22899 0 512 0 794.765941 228.817067 1024 511.07996 1024 932.984076 1024 1036.105826 655.968317 1001.919147 410.613862L511.07996 410.613862 511.07996 410.613862Z" p-id="6577" fill="#ffffff"></path></svg>