<?xml version="1.0" standalone="no"?><!DOCTYPE svg PUBLIC "-//W3C//DTD SVG 1.1//EN" "http://www.w3.org/Graphics/SVG/1.1/DTD/svg11.dtd"><svg t="1483535082106" class="icon" style="" viewBox="0 0 1024 1024" version="1.1" xmlns="http://www.w3.org/2000/svg" p-id="6887" xmlns:xlink="http://www.w3.org/1999/xlink" width="32" height="32"><defs><style type="text/css"></style></defs><path d="M338.048 349.248" p-id="6888" fill="#ffffff"></path><path d="M623.616 410.816l52.864 0c5.632 0 10.176-4.8 10.176-10.176l0-52.864c0-5.632-4.8-10.176-10.176-10.176l-52.864 0c-5.632 0-10.176 4.8-10.176 10.176L613.44 400.64C613.44 406.272 618.24 410.816 623.616 410.816z" p-id="6889" fill="#ffffff"></path><path d="M510.912 69.824c-244.224 0-442.176 197.952-442.176 442.176s197.952 442.176 442.176 442.176 442.176-197.952 442.176-442.176S755.136 69.824 510.912 69.824zM291.264 349.632c0-23.04 18.496-41.344 41.344-41.344l2.624 0L335.232 396.16l14.656 0L349.888 308.288l14.656 0L364.544 396.16l14.656 0L379.2 308.288l14.656 0L393.856 396.16l14.656 0L408.512 308.288 689.28 308.288c23.04 0 41.344 18.496 41.344 41.344l0 90.496L609.152 440.128c-24.128-26.944-59.2-43.968-98.24-43.968-39.04 0-74.112 16.96-98.24 43.968L291.264 440.128 291.264 349.632zM613.44 528c0 13.44-2.688 26.816-7.808 39.232-5.12 12.416-12.736 23.744-22.208 33.28-9.472 9.472-20.864 17.088-33.28 22.208-12.416 5.12-25.792 7.808-39.232 7.808-13.44 0-26.816-2.688-39.232-7.808-12.416-5.12-23.744-12.736-33.28-22.208-9.472-9.472-17.088-20.864-22.208-33.28-5.12-12.416-7.808-25.792-7.808-39.232 0-13.44 2.688-26.816 7.808-39.232 5.12-12.416 12.736-23.744 22.208-33.28 9.472-9.472 20.864-17.088 33.28-22.208 12.416-5.12 25.792-7.808 39.232-7.808 13.44 0 26.816 2.688 39.232 7.808 12.416 5.12 23.744 12.736 33.28 22.208 9.472 9.472 17.088 20.864 22.208 33.28C610.752 501.184 613.44 514.56 613.44 528zM730.624 685.568c0 34.432-27.776 62.08-62.016 62.08L353.28 747.648c-34.176 0-62.016-27.776-62.016-62.08L291.264 469.44l101.568 0c-8.768 17.664-13.696 37.568-13.696 58.56 0 72.768 59.008 131.84 131.84 131.84 72.768 0 131.84-59.008 131.84-131.84 0-21.056-4.928-40.96-13.696-58.56l101.568 0L730.688 685.568z" p-id="6890" fill="#ffffff"></path></svg>