<?xml version="1.0" standalone="no"?><!DOCTYPE svg PUBLIC "-//W3C//DTD SVG 1.1//EN" "http://www.w3.org/Graphics/SVG/1.1/DTD/svg11.dtd"><svg t="1483534944219" class="icon" style="" viewBox="0 0 1024 1024" version="1.1" xmlns="http://www.w3.org/2000/svg" p-id="5866" xmlns:xlink="http://www.w3.org/1999/xlink" width="32" height="32"><defs><style type="text/css"></style></defs><path d="M667.33396 164.365005c68.515522-1.204139 105.000941 23.721543 139.800564 55.510818 29.501411-2.528692 67.913452-19.0254 90.55127-30.585136 7.345249-3.973659 14.690499-8.067733 22.035748-12.041392-12.88429 34.920038-30.464722 62.253998-57.317027 82.965193-6.020696 4.575729-11.920978 10.837253-19.386642 13.727187l0 0.361242c38.412041-0.361242 70.080903-17.700847 100.06397-27.093133l0 0.481656c-15.774224 25.046096-37.207902 50.573848-59.966134 68.75635-9.151458 7.345249-18.42333 14.570085-27.574788 21.915334 0.481656 40.579492-0.60207 79.352775-8.188147 113.550329-44.19191 198.442145-161.234243 333.305738-346.430856 390.984008-66.468485 20.711195-173.998119 29.260583-250.220132 10.355597-37.809972-9.392286-71.887112-19.988711-104.037629-33.956726-17.821261-7.826905-34.317968-16.25588-50.092192-25.768579-5.177799-3.130762-10.355597-6.261524-15.533396-9.392286 17.219191 0.481656 37.328316 5.177799 56.47413 2.167451 17.339605-2.76952 34.438382-2.047037 50.453434-5.53904 39.977422-8.790216 75.49953-20.349953 106.084666-38.291627 14.810913-8.669802 37.328316-18.904986 47.924741-31.428034-19.868297 0.361242-37.930386-4.214487-52.620884-9.5127-57.196613-20.229539-90.55127-57.317027-112.105362-113.068674 17.339605 1.926623 67.311383 6.381938 78.991533-3.492004-21.79492-1.204139-42.746943-13.847601-57.798683-23.239887-45.998119-28.778928-83.567262-77.064911-83.206021-151.360301 6.020696 2.889934 12.041392 5.659454 18.182502 8.549389 11.559737 4.936971 23.360301 7.465663 37.087488 10.355597 5.779868 1.204139 17.460019 4.696143 24.203198 2.167451l-0.842897 0c-8.91063-10.355597-23.360301-17.219191-32.391345-28.297272-29.501411-36.726246-57.196613-93.200376-39.736595-160.511759 4.455315-17.098777 11.439323-32.150517 19.0254-45.998119 0.240828 0.120414 0.60207 0.240828 0.842897 0.481656 3.492004 7.224835 11.078081 12.523048 15.894638 18.543744 15.05174 18.664158 33.715898 35.522107 52.620884 50.33302 64.541863 50.453434 122.701787 81.520226 216.142992 104.519285 23.721543 5.779868 51.055503 10.355597 79.352775 10.355597-7.947319-23.119473-5.418627-60.568203 0.842897-82.965193 15.774224-56.353716 49.971778-96.933208 100.06397-118.728128 12.041392-5.177799 25.286924-9.031044 39.254939-12.041392C653.004704 166.171214 660.109125 165.328316 667.33396 164.365005" p-id="5867" fill="#ffffff"></path></svg>