<?xml version="1.0" standalone="no"?><!DOCTYPE svg PUBLIC "-//W3C//DTD SVG 1.1//EN" "http://www.w3.org/Graphics/SVG/1.1/DTD/svg11.dtd"><svg t="1483535094101" class="icon" style="" viewBox="0 0 1024 1024" version="1.1" xmlns="http://www.w3.org/2000/svg" p-id="7613" xmlns:xlink="http://www.w3.org/1999/xlink" width="32" height="32"><defs><style type="text/css"></style></defs><path d="M128.927883 359.53147 128.927883 506.764765c95.540983 0 185.351452 37.343513 252.866125 105.195877 66.696028 67.045999 103.783715 155.985634 104.741529 250.861468L633.757576 862.822111C631.726314 584.978105 406.096507 359.53147 128.927883 359.53147" p-id="7614" fill="#ffffff"></path><path d="M129.126404 98.550527 129.126404 245.77052c339.234191 0 615.386672 276.461519 617.47524 617.052614l147.219993 0C891.733069 441.030645 549.535383 98.550527 129.126404 98.550527" p-id="7615" fill="#ffffff"></path><path d="M230.763223 658.700153c-56.308447 0-101.947903 45.639456-101.947903 101.963253 0 56.337099 45.639456 101.975533 101.947903 101.975533 56.307424 0 102.005208-45.639456 102.005208-101.975533C332.768431 704.33961 287.071669 658.700153 230.763223 658.700153" p-id="7616" fill="#ffffff"></path></svg>