<svg enable-background="new 0 0 49.36 20.599" height="20.599px" id="Layer_1" version="1.1" viewBox="0 0 49.36 20.599" width="49.36px" x="0px" xml:space="preserve" xmlns="http://www.w3.org/2000/svg" xmlns:xlink="http://www.w3.org/1999/xlink" y="0px">
    <g>
        <path d="M49.066,4.443c0,0-0.287-2.018-1.17-2.906c-1.117-1.167-2.372-1.173-2.947-1.241 C40.832,0,34.657,0,34.657,0h-0.013c0,0-6.176,0-10.292,0.296c-0.575,0.067-1.829,0.074-2.948,1.241 c-0.882,0.888-1.169,2.906-1.169,2.906s-0.294,2.37-0.294,4.741v2.22c0,2.371,0.294,4.741,0.294,4.741s0.287,2.019,1.169,2.906 c1.12,1.168,2.59,1.131,3.244,1.252c2.354,0.226,10.002,0.295,10.002,0.295s6.182-0.011,10.299-0.306 c0.575-0.068,1.83-0.073,2.947-1.241c0.883-0.888,1.17-2.906,1.17-2.906s0.294-2.37,0.294-4.741v-2.22 C49.36,6.813,49.066,4.443,49.066,4.443z" fill="#DC4537" id="lozenge_1_"></path>
        <path d="M18.423,16.669h-1.872v-1.083c-0.709,0.813-1.311,1.223-1.967,1.223 c-0.575,0-0.975-0.271-1.174-0.762c-0.122-0.298-0.208-0.764-0.208-1.447V6.719h1.872v7.389c0,0.418,0,0.592,0,0.689 c0.044,0.276,0.161,0.378,0.399,0.378c0.358,0,0.683-0.312,1.078-0.87V6.719h1.872V16.669z" fill="#37474F" id="u_2_"></path>
        <path d="M11.822,9.971c0-1.063-0.214-1.862-0.591-2.366c-0.499-0.68-1.281-0.959-2.069-0.959 c-0.893,0-1.571,0.279-2.069,0.959c-0.384,0.503-0.589,1.31-0.589,2.374l-0.002,3.538c0,1.058,0.183,1.788,0.567,2.286 c0.498,0.678,1.305,1.038,2.093,1.038s1.609-0.36,2.108-1.038c0.378-0.498,0.552-1.229,0.552-2.286V9.971z M9.95,13.713 c0.099,0.986-0.207,1.475-0.788,1.475c-0.582,0-0.887-0.488-0.788-1.475V9.772C8.275,8.788,8.581,8.326,9.162,8.326 s0.887,0.462,0.789,1.446L9.95,13.713z" fill="#37474F" id="o_1_"></path>
        <path d="M4.434,11.25v5.419H2.463V11.25c0,0-2.042-6.643-2.463-7.881h2.068l1.383,5.19l1.375-5.19h2.069 L4.434,11.25z" fill="#37474F" id="y_1_"></path>
        <path d="M46.898,12.039v-2.014c0-1.053-0.208-1.822-0.58-2.32c-0.5-0.674-1.211-1.03-2.105-1.03 c-0.91,0-1.62,0.356-2.137,1.03c-0.378,0.499-0.6,1.312-0.6,2.363v3.449c0,1.046,0.242,1.779,0.621,2.271 c0.517,0.674,1.227,1.01,2.16,1.01c0.932,0,1.664-0.353,2.156-1.067c0.218-0.315,0.357-0.675,0.418-1.068 c0.016-0.18,0.063-0.586,0.063-1.161v-0.279h-1.872c0,0.717,0.003,1.142-0.014,1.238c-0.102,0.478-0.357,0.716-0.797,0.716 c-0.611,0-0.871-0.458-0.864-1.366v-1.77H46.898z M43.349,9.474c0-0.921,0.253-1.172,0.848-1.172c0.592,0,0.826,0.273,0.826,1.183 v1.076l-1.674,0.002V9.474z" fill="#FFFFFF" id="e_1_"></path>
        <path d="M38.631,6.659c-0.657,0-1.31,0.404-1.885,1.112l0.002-4.304h-1.773v13.202h1.773l0.002-0.992 c0.596,0.738,1.246,1.12,1.881,1.12c0.71,0,1.229-0.381,1.467-1.113c0.119-0.417,0.197-1.06,0.197-1.971V9.772 c0-0.931-0.12-1.569-0.239-1.964C39.818,7.07,39.341,6.659,38.631,6.659z M38.422,13.812c0,0.984-0.231,1.362-0.746,1.362 c-0.293,0-0.632-0.15-0.93-0.45l0.002-5.974c0.298-0.293,0.635-0.449,0.928-0.449c0.515,0,0.746,0.289,0.746,1.274V13.812z" fill="#FFFFFF" id="b_1_"></path>
        <path d="M33.496,16.669h-1.872v-1.083c-0.709,0.813-1.311,1.223-1.967,1.223 c-0.575,0-0.975-0.271-1.175-0.762c-0.121-0.298-0.207-0.764-0.207-1.447V6.818h1.871v7.29c0,0.418,0,0.592,0,0.689 c0.044,0.276,0.161,0.378,0.399,0.378c0.358,0,0.683-0.312,1.078-0.87V6.818h1.872V16.669z" fill="#FFFFFF" id="u_1_"></path>
        <polygon fill="#FFFFFF" id="T_1_" points="26.402,16.669 24.433,16.669 24.433,5.34 22.364,5.34 22.364,3.47 28.57,3.467 28.57,5.34 26.402,5.34">
        </polygon>
    </g>
</svg>
